<svg width="122" height="42" viewBox="0 0 122 42" fill="none" xmlns="http://www.w3.org/2000/svg">
<path d="M17.7827 3.59863C19.4443 3.59863 20.9561 4.00575 22.318 4.81865C23.6812 5.63222 24.7693 6.72029 25.5829 8.08353C26.3978 9.44544 26.8055 10.9579 26.8055 12.6215V31.7307C26.8055 33.3929 26.3978 34.9054 25.5829 36.2686C24.7693 37.6305 23.6812 38.7186 22.318 39.5335C20.9561 40.347 19.4443 40.7535 17.7827 40.7535H2.93827C1.81332 40.7535 0.901367 39.8415 0.901367 38.7166V5.63553C0.901367 4.51058 1.81332 3.59863 2.93827 3.59863H17.7827ZM9.92685 31.2214C9.92685 31.5027 10.1548 31.7307 10.4361 31.7307H15.2366C16.6428 31.7307 17.7827 30.5907 17.7827 29.1845V15.1676C17.7827 13.7614 16.6428 12.6215 15.2366 12.6215H10.4361C10.1548 12.6215 9.92685 12.8495 9.92685 13.1307V31.2214Z" fill="#212121"/>
<path d="M44.4268 14.096C44.4268 13.2523 45.1108 12.5684 45.9545 12.5684H51.922C52.7657 12.5684 53.4497 13.2523 53.4497 14.096V31.7306C53.4497 33.3577 53.0425 34.8523 52.2296 36.2155C51.4161 37.5774 50.328 38.6655 48.9648 39.4804C47.6029 40.2939 46.0904 40.7004 44.4268 40.7004H39.9154C38.2511 40.7004 36.7381 40.2939 35.3748 39.4804C34.0129 38.6655 32.9255 37.5774 32.1126 36.2155C31.299 34.8523 30.8926 33.3577 30.8926 31.7306V14.096C30.8926 13.2523 31.5765 12.5684 32.4203 12.5684H38.3877C39.2314 12.5684 39.9154 13.2523 39.9154 14.096V31.7306H44.4268V14.096Z" fill="#212121"/>
<path d="M57.5146 19.0387C57.5146 18.1926 58.2023 17.5076 59.0484 17.511L69.2711 17.5518C70.1125 17.5552 70.7927 18.2382 70.7927 19.0795V25.0496C70.7927 25.8957 70.105 26.5807 69.2589 26.5773L59.0362 26.5364C58.1949 26.5331 57.5146 25.8501 57.5146 25.0088V19.0387Z" fill="#212121"/>
<path d="M80.7594 12.5684H82.8732C83.4357 12.5684 83.8917 13.0243 83.8917 13.5868V39.6819C83.8917 40.2444 83.4357 40.7004 82.8732 40.7004H75.8847C75.3222 40.7004 74.8662 40.2444 74.8662 39.6819V18.4616C74.8662 17.3994 75.1314 16.4167 75.6619 15.515C76.1936 14.6119 76.9111 13.8945 77.8128 13.364C78.7146 12.8336 79.6966 12.5684 80.7594 12.5684Z" fill="#212121"/>
<path d="M108.053 12.5687C108.897 12.5687 109.581 13.2527 109.581 14.0964V20.0108C109.581 20.8546 108.897 21.5385 108.053 21.5385H102.627V39.1731C102.627 40.0168 101.943 40.7008 101.099 40.7008H95.1319C94.2882 40.7008 93.6042 40.0168 93.6042 39.1731V21.5385H88.39C87.5463 21.5385 86.8623 20.8546 86.8623 20.0108V14.0964C86.8623 13.2527 87.5463 12.5687 88.39 12.5687H93.6042V5.07357C93.6042 4.22986 94.2882 3.5459 95.1319 3.5459H97.373C98.8225 3.5459 100.06 4.05976 101.086 5.08683C102.113 6.11258 102.627 7.3505 102.627 8.79993V12.5687H108.053Z" fill="#212121"/>
<path d="M116.694 32.7385C117.896 32.7385 118.931 33.1728 119.797 34.0407C120.665 34.9073 121.1 35.9417 121.1 37.1438V37.356C121.1 38.5601 120.665 39.5958 119.797 40.4617C118.931 41.3277 117.896 41.7613 116.694 41.7613H116.48C115.277 41.7613 114.242 41.3277 113.374 40.4617C112.507 39.5958 112.074 38.5601 112.074 37.356C112.074 36.0829 112.525 34.9955 113.427 34.0938C114.33 33.1907 115.419 32.7385 116.694 32.7385ZM117.119 4.60645H119.572C120.416 4.60645 121.1 5.29041 121.1 6.13412V23.9809C121.1 25.3249 120.621 26.466 119.665 27.4049C118.71 28.3424 117.56 28.8105 116.214 28.8105H113.602C112.758 28.8105 112.074 28.1266 112.074 27.2829V9.6483C112.074 8.26915 112.569 7.08494 113.559 6.09434C114.551 5.10241 115.738 4.60645 117.119 4.60645Z" fill="#212121"/>
<path d="M84.6859 0.761719C85.89 0.761719 86.925 1.19602 87.7916 2.06396C88.6576 2.93057 89.0912 3.96493 89.0912 5.16705V5.37922C89.0912 6.58333 88.6576 7.61902 87.7916 8.48496C86.925 9.35091 85.89 9.78455 84.6859 9.78455H84.4737C83.2709 9.78455 82.2359 9.35091 81.3679 8.48496C80.5013 7.61902 80.0684 6.58333 80.0684 5.37922C80.0684 4.10616 80.5192 3.01875 81.421 2.117C82.3241 1.21392 83.4128 0.761719 84.6859 0.761719Z" fill="#1CABA2"/>
</svg>
