<svg width="20" height="21" viewBox="0 0 20 21" fill="none" xmlns="http://www.w3.org/2000/svg">
<g clip-path="url(#clip0_67_2928)">
<path fill-rule="evenodd" clip-rule="evenodd" d="M6.17967 3.26156C5.95065 3.78733 5.83263 4.35473 5.83301 4.92822C5.83301 5.37025 6.0086 5.79417 6.32116 6.10673C6.63372 6.41929 7.05765 6.59489 7.49967 6.59489H12.4997C12.9417 6.59489 13.3656 6.41929 13.6782 6.10673C13.9907 5.79417 14.1663 5.37025 14.1663 4.92822C14.1663 4.33572 14.043 3.77156 13.8197 3.26156H14.9997C15.4417 3.26156 15.8656 3.43715 16.1782 3.74971C16.4907 4.06227 16.6663 4.4862 16.6663 4.92822V17.4282C16.6663 17.8702 16.4907 18.2942 16.1782 18.6067C15.8656 18.9193 15.4417 19.0949 14.9997 19.0949H4.99967C4.55765 19.0949 4.13372 18.9193 3.82116 18.6067C3.5086 18.2942 3.33301 17.8702 3.33301 17.4282V4.92822C3.33301 4.4862 3.5086 4.06227 3.82116 3.74971C4.13372 3.43715 4.55765 3.26156 4.99967 3.26156H6.17967ZM9.99967 12.4282H7.49967C7.27866 12.4282 7.0667 12.516 6.91042 12.6723C6.75414 12.8286 6.66634 13.0405 6.66634 13.2616C6.66634 13.4826 6.75414 13.6945 6.91042 13.8508C7.0667 14.0071 7.27866 14.0949 7.49967 14.0949H9.99967C10.2207 14.0949 10.4326 14.0071 10.5889 13.8508C10.7452 13.6945 10.833 13.4826 10.833 13.2616C10.833 13.0405 10.7452 12.8286 10.5889 12.6723C10.4326 12.516 10.2207 12.4282 9.99967 12.4282ZM12.4997 9.09489H7.49967C7.28727 9.09512 7.08298 9.17645 6.92853 9.32226C6.77409 9.46807 6.68115 9.66735 6.6687 9.87938C6.65625 10.0914 6.72524 10.3002 6.86156 10.4631C6.99789 10.626 7.19126 10.7306 7.40217 10.7557L7.49967 10.7616H12.4997C12.7207 10.7616 12.9326 10.6738 13.0889 10.5175C13.2452 10.3612 13.333 10.1492 13.333 9.92822C13.333 9.70721 13.2452 9.49525 13.0889 9.33897C12.9326 9.18269 12.7207 9.09489 12.4997 9.09489ZM9.99967 2.42822C10.3514 2.42823 10.6992 2.50246 11.0203 2.64606C11.3413 2.78965 11.6285 2.99939 11.863 3.26156C12.2197 3.65989 12.4497 4.17239 12.4922 4.73822L12.4997 4.92822H7.49967C7.49967 4.32406 7.71384 3.76989 8.07051 3.33822L8.13634 3.26156C8.59467 2.74989 9.25967 2.42822 9.99967 2.42822Z" fill="#1CABA2"/>
</g>
<defs>
<clipPath id="clip0_67_2928">
<rect width="20" height="20" fill="white" transform="translate(0 0.761719)"/>
</clipPath>
</defs>
</svg>
