<svg width="21" height="21" viewBox="0 0 21 21" fill="none" xmlns="http://www.w3.org/2000/svg">
<g clip-path="url(#clip0_67_2939)">
<path fill-rule="evenodd" clip-rule="evenodd" d="M11.2523 14.0918C12.0803 13.6119 12.804 12.9712 13.3809 12.2075C13.1942 11.9193 13.062 11.5992 12.9909 11.2632L12.9637 11.1375C12.8852 10.7789 12.7017 10.4519 12.4366 10.1979C12.1715 9.94404 11.8368 9.77481 11.4752 9.71182C8.51515 9.19753 8.51515 4.94896 11.4752 4.43325C11.8245 4.37257 12.1491 4.2126 12.41 3.97245C12.6709 3.7323 12.8572 3.42212 12.9466 3.07896C12.2505 2.32048 11.3988 1.72142 10.4496 1.32281C9.50048 0.924206 8.47639 0.735471 7.4475 0.769537C6.41861 0.803604 5.40925 1.05967 4.48855 1.52019C3.56785 1.98071 2.75757 2.6348 2.11322 3.43766C1.46888 4.24051 1.00568 5.17317 0.755376 6.17172C0.505069 7.17028 0.473563 8.21114 0.663015 9.223C0.852468 10.2349 1.2584 11.1938 1.85301 12.0342C2.44762 12.8746 3.21685 13.5765 4.10801 14.0918V15.7618C4.10801 16.1407 4.25852 16.5041 4.52643 16.772C4.79434 17.0399 5.1577 17.1904 5.53658 17.1904H9.8223C10.2012 17.1904 10.5645 17.0399 10.8324 16.772C11.1004 16.5041 11.2509 16.1407 11.2509 15.7618L11.2523 14.0918ZM4.10944 19.6904C4.10944 19.4062 4.22232 19.1337 4.42325 18.9328C4.62419 18.7318 4.89671 18.619 5.18087 18.619H10.1809C10.465 18.619 10.7376 18.7318 10.9385 18.9328C11.1394 19.1337 11.2523 19.4062 11.2523 19.6904C11.2523 19.9745 11.1394 20.2471 10.9385 20.448C10.7376 20.6489 10.465 20.7618 10.1809 20.7618H5.18087C4.89671 20.7618 4.62419 20.6489 4.42325 20.448C4.22232 20.2471 4.10944 19.9745 4.10944 19.6904ZM14.5094 3.21467C14.7709 2.02039 16.4709 2.01325 16.7423 3.20467L16.7552 3.26182L16.7809 3.37325C16.9342 4.02621 17.2761 4.6197 17.764 5.07993C18.2519 5.54017 18.8644 5.84684 19.5252 5.96182C20.7709 6.17896 20.7709 7.96753 19.5252 8.18467C18.8606 8.30034 18.245 8.60978 17.7558 9.07414C17.2665 9.5385 16.9254 10.1371 16.7752 10.7947L16.7423 10.9404C16.4709 12.1332 14.7694 12.1261 14.5066 10.9304L14.4794 10.8061C14.3354 10.1463 13.9982 9.54433 13.5107 9.07695C13.0232 8.60957 12.4076 8.29794 11.7423 8.18182C10.498 7.9661 10.498 6.18039 11.7423 5.96325C12.4052 5.84796 13.0191 5.53854 13.5061 5.07418C13.9931 4.60982 14.3313 4.01139 14.478 3.35467L14.4994 3.26182L14.5094 3.21467Z" fill="#1CABA2"/>
</g>
<defs>
<clipPath id="clip0_67_2939">
<rect width="20" height="20" fill="white" transform="translate(0.5 0.761719)"/>
</clipPath>
</defs>
</svg>
